<?xml version="1.0" encoding="UTF-8" standalone="no"?>
<!DOCTYPE svg PUBLIC "-//W3C//DTD SVG 1.1//EN"
 "http://www.w3.org/Graphics/SVG/1.1/DTD/svg11.dtd">
<!-- Generated by graphviz version 7.1.0 (0)
 -->
<!-- Title: graph_1 Pages: 1 -->
<svg width="298pt" height="239pt"
 viewBox="0.00 0.00 297.70 239.00" xmlns="http://www.w3.org/2000/svg" xmlns:xlink="http://www.w3.org/1999/xlink">
<g id="graph0" class="graph" transform="scale(1 1) rotate(0) translate(4 235)">
<title>graph_1</title>
<polygon fill="white" stroke="none" points="-4,4 -4,-235 293.7,-235 293.7,4 -4,4"/>
<!-- 3 -->
<g id="node1" class="node">
<title>3</title>
<ellipse fill="none" stroke="black" cx="32.47" cy="-164.89" rx="27" ry="18"/>
<text text-anchor="middle" x="32.47" y="-161.19" font-family="Times,serif" font-size="14.00">3</text>
</g>
<!-- 6 -->
<g id="node2" class="node">
<title>6</title>
<ellipse fill="none" stroke="black" cx="91.21" cy="-107.47" rx="27" ry="18"/>
<text text-anchor="middle" x="91.21" y="-103.77" font-family="Times,serif" font-size="14.00">6</text>
</g>
<!-- 3&#45;&gt;6 -->
<g id="edge1" class="edge">
<title>3&#45;&gt;6</title>
<path fill="none" stroke="black" d="M47.9,-149.81C53.93,-143.92 60.97,-137.03 67.6,-130.55"/>
<polygon fill="black" stroke="black" points="69.89,-133.21 74.59,-123.71 65,-128.2 69.89,-133.21"/>
</g>
<!-- 7 -->
<g id="node4" class="node">
<title>7</title>
<ellipse fill="none" stroke="black" cx="186.76" cy="-89" rx="27" ry="18"/>
<text text-anchor="middle" x="186.76" y="-85.3" font-family="Times,serif" font-size="14.00">7</text>
</g>
<!-- 6&#45;&gt;7 -->
<g id="edge5" class="edge">
<title>6&#45;&gt;7</title>
<path fill="none" stroke="black" d="M117.57,-102.38C127.39,-100.48 138.73,-98.29 149.35,-96.23"/>
<polygon fill="black" stroke="black" points="149.85,-99.7 159,-94.37 148.52,-92.83 149.85,-99.7"/>
</g>
<!-- 0 -->
<g id="node7" class="node">
<title>0</title>
<ellipse fill="none" stroke="black" cx="27" cy="-56.76" rx="27" ry="18"/>
<text text-anchor="middle" x="27" y="-53.06" font-family="Times,serif" font-size="14.00">0</text>
</g>
<!-- 6&#45;&gt;0 -->
<g id="edge4" class="edge">
<title>6&#45;&gt;0</title>
<path fill="none" stroke="black" d="M73.66,-93.61C67.43,-88.69 60.28,-83.04 53.47,-77.66"/>
<polygon fill="black" stroke="black" points="55.73,-74.99 45.71,-71.54 51.39,-80.48 55.73,-74.99"/>
</g>
<!-- 4 -->
<g id="node3" class="node">
<title>4</title>
<ellipse fill="none" stroke="black" cx="227.46" cy="-18" rx="27" ry="18"/>
<text text-anchor="middle" x="227.46" y="-14.3" font-family="Times,serif" font-size="14.00">4</text>
</g>
<!-- 4&#45;&gt;7 -->
<g id="edge2" class="edge">
<title>4&#45;&gt;7</title>
<path fill="none" stroke="black" d="M217.61,-35.19C212.96,-43.3 207.31,-53.17 202.11,-62.23"/>
<polygon fill="black" stroke="black" points="199.21,-60.24 197.28,-70.66 205.29,-63.73 199.21,-60.24"/>
</g>
<!-- 8 -->
<g id="node6" class="node">
<title>8</title>
<ellipse fill="none" stroke="black" cx="145.56" cy="-132.22" rx="27" ry="18"/>
<text text-anchor="middle" x="145.56" y="-128.52" font-family="Times,serif" font-size="14.00">8</text>
</g>
<!-- 7&#45;&gt;8 -->
<g id="edge7" class="edge">
<title>7&#45;&gt;8</title>
<path fill="none" stroke="black" d="M172.35,-104.12C171.01,-105.53 169.63,-106.97 168.24,-108.43"/>
<polygon fill="black" stroke="black" points="165.72,-106 161.36,-115.65 170.79,-110.83 165.72,-106"/>
</g>
<!-- 1 -->
<g id="node8" class="node">
<title>1</title>
<ellipse fill="none" stroke="black" cx="262.7" cy="-120.33" rx="27" ry="18"/>
<text text-anchor="middle" x="262.7" y="-116.63" font-family="Times,serif" font-size="14.00">1</text>
</g>
<!-- 7&#45;&gt;1 -->
<g id="edge6" class="edge">
<title>7&#45;&gt;1</title>
<path fill="none" stroke="black" d="M209.96,-98.57C215.94,-101.04 222.5,-103.75 228.9,-106.39"/>
<polygon fill="black" stroke="black" points="227.41,-109.56 237.99,-110.14 230.08,-103.09 227.41,-109.56"/>
</g>
<!-- 5 -->
<g id="node5" class="node">
<title>5</title>
<ellipse fill="none" stroke="black" cx="161.36" cy="-213" rx="27" ry="18"/>
<text text-anchor="middle" x="161.36" y="-209.3" font-family="Times,serif" font-size="14.00">5</text>
</g>
<!-- 5&#45;&gt;8 -->
<g id="edge3" class="edge">
<title>5&#45;&gt;8</title>
<path fill="none" stroke="black" d="M157.78,-194.67C155.86,-184.86 153.45,-172.54 151.28,-161.45"/>
<polygon fill="black" stroke="black" points="154.78,-161.11 149.42,-151.97 147.91,-162.45 154.78,-161.11"/>
</g>
<!-- 8&#45;&gt;6 -->
<g id="edge9" class="edge">
<title>8&#45;&gt;6</title>
<path fill="none" stroke="black" d="M122.82,-121.87C122.73,-121.83 122.64,-121.78 122.54,-121.74"/>
<polygon fill="black" stroke="black" points="125.61,-119.29 115.06,-118.33 122.71,-125.66 125.61,-119.29"/>
</g>
<!-- 2 -->
<g id="node9" class="node">
<title>2</title>
<ellipse fill="none" stroke="black" cx="127.22" cy="-36.87" rx="27" ry="18"/>
<text text-anchor="middle" x="127.22" y="-33.17" font-family="Times,serif" font-size="14.00">2</text>
</g>
<!-- 8&#45;&gt;2 -->
<g id="edge8" class="edge">
<title>8&#45;&gt;2</title>
<path fill="none" stroke="black" d="M142.11,-114.29C139.51,-100.79 135.9,-81.99 132.88,-66.3"/>
<polygon fill="black" stroke="black" points="136.33,-65.69 131,-56.54 129.45,-67.02 136.33,-65.69"/>
</g>
</g>
</svg>
